<?xml version="1.0" standalone="no"?>
<!DOCTYPE svg PUBLIC "-//W3C//DTD SVG 20010904//EN"
 "http://www.w3.org/TR/2001/REC-SVG-20010904/DTD/svg10.dtd">
<svg version="1.0" xmlns="http://www.w3.org/2000/svg"
 width="576.000000pt" height="397.000000pt" viewBox="0 0 576.000000 397.000000"
 preserveAspectRatio="xMidYMid meet">
<metadata>
Created by potrace 1.16, written by Peter Selinger 2001-2019
</metadata>
<g transform="translate(0.000000,397.000000) scale(0.100000,-0.100000)"
fill="#000000" stroke="none">
<path d="M2810 3515 l0 -115 55 0 55 0 0 115 0 115 -55 0 -55 0 0 -115z"/>
<path d="M2810 3060 l0 -110 55 0 55 0 0 110 0 110 -55 0 -55 0 0 -110z"/>
<path d="M1968 2923 c-9 -10 -82 -150 -162 -311 -143 -286 -147 -295 -131
-319 9 -13 23 -27 32 -30 8 -3 79 20 158 51 l143 57 141 -57 c121 -48 146 -55
166 -46 51 23 45 42 -114 359 -82 165 -157 303 -166 307 -28 11 -51 7 -67 -11z
m122 -324 c45 -89 79 -163 77 -165 -2 -2 -38 10 -81 27 l-77 32 -67 -26 c-37
-15 -75 -29 -85 -33 -13 -5 5 39 65 160 45 91 84 166 85 166 1 0 38 -73 83
-161z"/>
<path d="M2810 2686 c0 -28 -5 -36 -28 -44 -43 -15 -103 -72 -123 -117 -37
-81 -17 -196 45 -254 l24 -22 -165 -412 c-91 -227 -166 -413 -168 -415 -1 -1
-67 106 -146 239 -151 254 -169 274 -213 246 -11 -8 -75 -80 -141 -160 -66
-80 -123 -146 -126 -146 -4 -1 -41 20 -84 46 -72 44 -78 46 -102 33 -18 -11
-73 -119 -224 -443 -110 -236 -197 -432 -195 -436 10 -16 87 -44 95 -35 9 9
301 629 343 727 12 26 25 47 30 47 4 0 38 -19 74 -41 56 -36 69 -40 89 -31 13
6 76 74 140 151 64 78 118 141 119 141 2 0 72 -114 157 -254 91 -152 162 -259
175 -264 52 -24 58 -13 238 440 94 235 174 425 178 422 4 -3 8 -21 8 -40 l0
-34 54 0 55 0 3 38 c2 30 55 -101 286 -718 156 -415 290 -765 298 -778 23 -36
56 -27 178 48 62 38 118 70 123 70 6 0 52 -73 103 -162 96 -170 123 -208 149
-208 11 0 468 166 478 174 8 7 -38 101 -49 100 -7 -1 -100 -34 -206 -74 -106
-40 -194 -71 -196 -69 -2 2 -47 81 -101 174 -109 190 -120 205 -148 205 -11 0
-70 -29 -132 -65 -61 -36 -116 -65 -122 -65 -6 0 -141 348 -300 773 l-289 772
38 44 c55 63 71 138 47 212 -18 51 -72 113 -118 134 -36 16 -41 22 -41 52 l0
33 -55 0 -55 0 0 -34z m117 -163 c48 -32 63 -110 30 -153 -21 -28 -61 -50 -90
-50 -92 0 -150 106 -95 175 42 54 100 64 155 28z"/>
<path d="M3396 2584 c-9 -8 -16 -25 -16 -37 1 -12 69 -157 153 -322 l152 -300
35 0 35 0 152 300 c84 165 152 310 153 322 0 28 -25 53 -54 53 -12 0 -78 -22
-146 -50 -68 -27 -131 -50 -140 -50 -9 0 -72 23 -140 50 -133 54 -160 59 -184
34z m242 -179 c77 -31 87 -31 167 1 36 15 68 24 71 21 6 -5 -148 -317 -156
-317 -5 0 -160 305 -160 315 0 9 16 5 78 -20z"/>
<path d="M2810 1690 l0 -110 55 0 55 0 0 110 0 110 -55 0 -55 0 0 -110z"/>
<path d="M2810 1235 l0 -115 55 0 55 0 0 115 0 115 -55 0 -55 0 0 -115z"/>
<path d="M2810 775 l0 -115 55 0 55 0 0 115 0 115 -55 0 -55 0 0 -115z"/>
<path d="M2810 320 l0 -110 55 0 55 0 0 110 0 110 -55 0 -55 0 0 -110z"/>
</g>
</svg>
